<?xml version="1.0" encoding="utf-8"?>
<!-- Generator: Adobe Illustrator 16.0.0, SVG Export Plug-In . SVG Version: 6.00 Build 0)  -->
<!DOCTYPE svg PUBLIC "-//W3C//DTD SVG 1.1//EN" "http://www.w3.org/Graphics/SVG/1.1/DTD/svg11.dtd">
<svg version="1.1" id="Layer_1" xmlns="http://www.w3.org/2000/svg" xmlns:xlink="http://www.w3.org/1999/xlink" x="0px" y="0px"
	 width="595.28px" height="841.89px" viewBox="0 0 595.28 841.89" enable-background="new 0 0 595.28 841.89" xml:space="preserve">
<g id="Logo">
	<rect x="47" y="335" fill="#FFFFFF" width="9" height="88"/>
	<rect x="56" y="335" fill="#FFFFFF" width="30" height="26"/>
	<rect x="86" y="351" fill="#FFFFFF" width="9" height="31"/>
	<rect x="65" y="382" fill="#FFFFFF" width="21" height="9"/>
	<rect x="56" y="382" fill="#FFFFFF" width="9" height="9"/>
	<rect x="86" y="391" fill="#FFFFFF" width="20" height="32"/>
	<rect x="56" y="412" fill="#FFFFFF" width="30" height="11"/>
	<rect x="120" y="351" fill="#FFFFFF" width="12" height="63"/>
	<rect x="132" y="414" fill="#FFFFFF" width="38" height="9"/>
	<rect x="162" y="351" fill="#FFFFFF" width="18" height="63"/>
	<rect x="132" y="335" fill="#FFFFFF" width="30" height="16"/>
	<rect x="200" y="335" fill="#FFFFFF" width="12" height="88"/>
	<rect x="212" y="351" fill="#FFFFFF" width="9" height="72"/>
	<rect x="237" y="351" fill="#FFFFFF" width="10" height="61"/>
	<rect x="247" y="412" fill="#FFFFFF" width="40" height="11"/>
	<rect x="276" y="351" fill="#FFFFFF" width="20" height="61"/>
	<rect x="247" y="335" fill="#FFFFFF" width="29" height="16"/>
	<rect x="341" y="372" fill="#E7E514" width="11" height="51"/>
	<rect x="352" y="372" fill="#DFA3CA" width="7" height="51"/>
	<rect x="359" y="372" fill="#FFFFFF" width="20" height="10"/>
	<rect x="360.003" y="391" fill="#FFFFFF" width="20.087" height="0"/>
	<rect x="370" y="382" fill="#FFFFFF" width="9" height="9"/>
	<rect x="359" y="391" fill="#FFFFFF" width="20" height="11"/>
	<rect x="359" y="412" fill="#FFFFFF" width="22" height="11"/>
	<rect x="397" y="335" fill="#FFFFFF" width="42" height="35"/>
	<rect x="397" y="370" fill="#FFFFFF" width="10" height="21"/>
	<rect x="397" y="391" fill="#FFFFFF" width="42" height="9"/>
	<rect x="427" y="400" fill="#FFFFFF" width="12" height="21"/>
	<rect x="397" y="412" fill="#FFFFFF" width="30" height="9"/>
	<rect x="507" y="335" fill="#FFFFFF" width="12" height="88"/>
	<rect x="519" y="351" fill="#FFFFFF" width="9" height="72"/>
	<rect x="311" y="391" fill="#FFFFFF" width="11" height="32"/>
	<rect x="322" y="391" fill="#FFFFFF" width="19" height="11"/>
	<rect x="322" y="412" fill="#FFFFFF" width="19" height="11"/>
	<rect x="331" y="402" fill="#FFFFFF" width="10" height="10"/>
	<rect x="453" y="368" fill="#030303" width="11" height="55"/>
	<rect x="456" y="356" fill="#030303" width="31" height="12"/>
	<rect x="455" y="348" fill="#737373" width="38" height="8"/>
	<rect x="455" y="335" fill="#737373" width="38" height="13"/>
	<rect x="458" y="339" fill="#010101" width="3" height="4"/>
	<rect x="469" y="339" fill="#010101" width="2" height="4"/>
	<rect x="479" y="339" fill="#010101" width="2" height="4"/>
	<rect x="489" y="339" fill="#010101" width="3" height="4"/>
	<rect x="484" y="345" fill="#010101" width="3" height="3"/>
	<rect x="472" y="345" fill="#010101" width="4" height="3"/>
	<rect x="463" y="345" fill="#010101" width="3" height="3"/>
	<rect x="464" y="393" fill="#030303" width="21" height="9"/>
	<rect x="477" y="368" fill="#030303" width="16" height="55"/>
</g>
</svg>
