<?xml version="1.0" encoding="utf-8"?>
<!-- Generator: Adobe Illustrator 16.0.0, SVG Export Plug-In . SVG Version: 6.00 Build 0)  -->
<!DOCTYPE svg PUBLIC "-//W3C//DTD SVG 1.1//EN" "http://www.w3.org/Graphics/SVG/1.1/DTD/svg11.dtd">
<svg version="1.1" id="Layer_1" xmlns="http://www.w3.org/2000/svg" xmlns:xlink="http://www.w3.org/1999/xlink" x="0px" y="0px"
	 width="560px" height="960px" viewBox="0 0 560 960" enable-background="new 0 0 560 960" xml:space="preserve">
<rect x="62" y="486" fill="#F9D667" width="441" height="72"/>
<rect x="62" y="441" fill="#F9D667" width="441" height="18"/>
<rect x="62" y="342" fill="#F9D667" width="441" height="72"/>
<rect x="62" y="459" fill="#FC9FF5" width="441" height="27"/>
<rect x="62" y="414" fill="#FBFF5C" width="441" height="27"/>
<circle fill="#FCD6FB" cx="119.5" cy="467.5" r="4.5"/>
<circle fill="#FCD6FB" cx="247.5" cy="476.5" r="4.5"/>
<circle fill="#FCD6FB" cx="330.5" cy="467.5" r="4.5"/>
<circle fill="#FCD6FB" cx="305.5" cy="477.5" r="4.5"/>
<circle fill="#FCD6FB" cx="156.5" cy="463.5" r="4.5"/>
<circle fill="#FCD6FB" cx="419.5" cy="472.5" r="4.5"/>
<circle fill="#FCD6FB" cx="473.5" cy="463.5" r="4.5"/>
<circle fill="#FCD6FB" cx="79.5" cy="472.5" r="4.5"/>
<rect x="71" y="324" fill="#F2F200" width="9" height="9"/>
<rect x="80" y="333" fill="#F2F200" width="9" height="9"/>
<rect x="62" y="333" fill="#F2F200" width="9" height="9"/>
<rect x="89" y="324" fill="#F2F200" width="9" height="9"/>
<rect x="98" y="333" fill="#F2F200" width="9" height="9"/>
<rect x="107" y="324" fill="#F2F200" width="9" height="9"/>
<rect x="116" y="333" fill="#F2F200" width="9" height="9"/>
<rect x="125" y="324" fill="#F2F200" width="9" height="9"/>
<rect x="143" y="324" fill="#F2F200" width="9" height="9"/>
<rect x="152" y="333" fill="#F2F200" width="9" height="9"/>
<rect x="134" y="333" fill="#F2F200" width="9" height="9"/>
<rect x="161" y="324" fill="#F2F200" width="9" height="9"/>
<rect x="170" y="333" fill="#F2F200" width="9" height="9"/>
<rect x="179" y="324" fill="#F2F200" width="9" height="9"/>
<rect x="188" y="333" fill="#F2F200" width="9" height="9"/>
<rect x="197" y="324" fill="#F2F200" width="9" height="9"/>
<rect x="215" y="324" fill="#F2F200" width="9" height="9"/>
<rect x="224" y="333" fill="#F2F200" width="9" height="9"/>
<rect x="206" y="333" fill="#F2F200" width="9" height="9"/>
<rect x="233" y="324" fill="#F2F200" width="9" height="9"/>
<rect x="242" y="333" fill="#F2F200" width="9" height="9"/>
<rect x="251" y="324" fill="#F2F200" width="9" height="9"/>
<rect x="260" y="333" fill="#F2F200" width="9" height="9"/>
<rect x="269" y="324" fill="#F2F200" width="9" height="9"/>
<rect x="286" y="324" fill="#F2F200" width="9" height="9"/>
<rect x="295" y="333" fill="#F2F200" width="9" height="9"/>
<rect x="277" y="333" fill="#F2F200" width="9" height="9"/>
<rect x="304" y="324" fill="#F2F200" width="9" height="9"/>
<rect x="313" y="333" fill="#F2F200" width="9" height="9"/>
<rect x="322" y="324" fill="#F2F200" width="9" height="9"/>
<rect x="331" y="333" fill="#F2F200" width="9" height="9"/>
<rect x="340" y="324" fill="#F2F200" width="9" height="9"/>
<rect x="357" y="324" fill="#F2F200" width="9" height="9"/>
<rect x="366" y="333" fill="#F2F200" width="9" height="9"/>
<rect x="348" y="333" fill="#F2F200" width="9" height="9"/>
<rect x="375" y="324" fill="#F2F200" width="9" height="9"/>
<rect x="384" y="333" fill="#F2F200" width="9" height="9"/>
<rect x="393" y="324" fill="#F2F200" width="9" height="9"/>
<rect x="402" y="333" fill="#F2F200" width="9" height="9"/>
<rect x="411" y="324" fill="#F2F200" width="9" height="9"/>
<rect x="431" y="324" fill="#F2F200" width="9" height="9"/>
<rect x="440" y="333" fill="#F2F200" width="9" height="9"/>
<rect x="422" y="333" fill="#F2F200" width="9" height="9"/>
<rect x="449" y="324" fill="#F2F200" width="9" height="9"/>
<rect x="458" y="333" fill="#F2F200" width="9" height="9"/>
<rect x="467" y="324" fill="#F2F200" width="9" height="9"/>
<rect x="476" y="333" fill="#F2F200" width="9" height="9"/>
<rect x="485" y="324" fill="#F2F200" width="9" height="9"/>
<rect x="71" y="360" fill="#FF9100" width="9" height="9"/>
<rect x="219" y="374" fill="#FF9100" width="9" height="9"/>
<rect x="170" y="405" fill="#FF9100" width="9" height="9"/>
<rect x="152" y="374" fill="#FF9100" width="9" height="9"/>
<rect x="255" y="398" fill="#FF9100" width="9" height="9"/>
<rect x="238" y="346" fill="#FF9100" width="9" height="9"/>
<rect x="304" y="393" fill="#FF9100" width="9" height="9"/>
<rect x="265" y="369" fill="#FF9100" width="9" height="9"/>
<rect x="348" y="360" fill="#FF9100" width="9" height="9"/>
<rect x="313" y="364" fill="#FF9100" width="9" height="9"/>
<rect x="362" y="393" fill="#FF9100" width="9" height="9"/>
<rect x="427" y="355" fill="#FF9100" width="9" height="9"/>
<rect x="407" y="393" fill="#FF9100" width="9" height="9"/>
<rect x="476" y="374" fill="#FF9100" width="9" height="9"/>
<rect x="93" y="393" fill="#FF9100" width="9" height="9"/>
<rect x="116" y="346" fill="#FF9100" width="9" height="9"/>
<rect x="84" y="502" fill="#FF9100" width="9" height="9"/>
<rect x="102" y="523" fill="#FF9100" width="9" height="9"/>
<rect x="120" y="498" fill="#FF9100" width="9" height="9"/>
<rect x="134" y="540" fill="#FF9100" width="9" height="9"/>
<rect x="233" y="532" fill="#FF9100" width="9" height="9"/>
<rect x="161" y="514" fill="#FF9100" width="9" height="9"/>
<rect x="210" y="498" fill="#FF9100" width="9" height="9"/>
<rect x="286" y="540" fill="#FF9100" width="9" height="9"/>
<rect x="264" y="514" fill="#FF9100" width="9" height="9"/>
<rect x="326" y="519" fill="#FF9100" width="9" height="9"/>
<rect x="304" y="491" fill="#FF9100" width="9" height="9"/>
<rect x="362" y="491" fill="#FF9100" width="9" height="9"/>
<rect x="345" y="545" fill="#FF9100" width="9" height="9"/>
<rect x="412" y="519" fill="#FF9100" width="9" height="9"/>
<rect x="467" y="507" fill="#FF9100" width="9" height="9"/>
<rect x="431" y="545" fill="#FF9100" width="9" height="9"/>
<rect x="412" y="489" fill="#FF9100" width="9" height="9"/>
<rect x="70" y="547" fill="#FF9100" width="9" height="9"/>
<rect x="110" y="447" fill="#FF9100" width="9" height="9"/>
<rect x="176" y="447" fill="#FF9100" width="9" height="9"/>
<rect x="306" y="447" fill="#FF9100" width="9" height="9"/>
<rect x="233" y="443" fill="#FF9100" width="9" height="9"/>
<rect x="445" y="446" fill="#FF9100" width="9" height="9"/>
<rect x="62" y="577" fill="#F9D667" width="9" height="76"/>
<rect x="71" y="577" fill="#F9D667" width="27" height="22"/>
<rect x="98" y="590" fill="#F9D667" width="9" height="27"/>
<rect x="80" y="617" fill="#F9D667" width="18" height="9"/>
<rect x="71" y="617" fill="#F9D667" width="9" height="9"/>
<rect x="98" y="626" fill="#F9D667" width="18" height="27"/>
<rect x="71" y="644" fill="#F9D667" width="27" height="9"/>
<rect x="129" y="591" fill="#F9D667" width="9" height="54"/>
<rect x="138" y="645" fill="#F9D667" width="36" height="9"/>
<rect x="165" y="591" fill="#F9D667" width="18" height="54"/>
<rect x="138" y="577" fill="#F9D667" width="27" height="14"/>
<rect x="201" y="577" fill="#F9D667" width="9" height="76"/>
<rect x="210" y="590" fill="#F9D667" width="9" height="63"/>
<rect x="233" y="590" fill="#F9D667" width="9" height="54"/>
<rect x="242" y="644" fill="#F9D667" width="36" height="9"/>
<rect x="269" y="590" fill="#F9D667" width="18" height="54"/>
<rect x="242" y="577" fill="#F9D667" width="27" height="13"/>
<rect x="326" y="608" fill="#EDFF00" width="9" height="45"/>
<rect x="335" y="608" fill="#FC9FF5" width="8" height="45"/>
<rect x="343" y="608" fill="#F9D667" width="18" height="9"/>
<rect x="343" y="626" fill="#F9D667" width="18" height="0"/>
<rect x="352" y="617" fill="#F9D667" width="9" height="9"/>
<rect x="343" y="626" fill="#F9D667" width="18" height="9"/>
<rect x="343" y="644" fill="#F9D667" width="20" height="9"/>
<rect x="377" y="576" fill="#F9D667" width="36" height="31"/>
<rect x="377" y="607" fill="#F9D667" width="9" height="18"/>
<rect x="377" y="625" fill="#F9D667" width="36" height="9"/>
<rect x="404" y="634" fill="#F9D667" width="9" height="18"/>
<rect x="377" y="643" fill="#F9D667" width="27" height="9"/>
<rect x="476" y="577" fill="#F9D667" width="9" height="76"/>
<rect x="485" y="590" fill="#F9D667" width="9" height="63"/>
<rect x="300" y="626" fill="#F9D667" width="9" height="27"/>
<rect x="309" y="626" fill="#F9D667" width="17" height="9"/>
<rect x="309" y="644" fill="#F9D667" width="17" height="9"/>
<rect x="318" y="635" fill="#F9D667" width="8" height="9"/>
<rect x="427" y="604" fill="#020202" width="9" height="49"/>
<rect x="431" y="595" fill="#020202" width="27" height="9"/>
<rect x="428" y="586" fill="#727272" width="36" height="9"/>
<rect x="428" y="576" fill="#727272" width="36" height="10"/>
<rect x="431" y="579" width="3" height="3"/>
<rect x="440" y="579" width="3" height="3"/>
<rect x="449" y="579" width="3" height="3"/>
<rect x="458" y="579" width="3" height="3"/>
<rect x="454" y="584" width="3" height="3"/>
<rect x="444" y="584" width="3" height="3"/>
<rect x="435" y="584" width="3" height="3"/>
<rect x="436" y="627" fill="#020202" width="19" height="8"/>
<rect x="448" y="604" fill="#020202" width="15" height="49"/>
<rect x="494" y="333" fill="#F2F200" width="9" height="9"/>
</svg>
