<?xml version="1.0" encoding="utf-8"?>
<!-- Generator: Adobe Illustrator 16.0.0, SVG Export Plug-In . SVG Version: 6.00 Build 0)  -->
<!DOCTYPE svg PUBLIC "-//W3C//DTD SVG 1.1//EN" "http://www.w3.org/Graphics/SVG/1.1/DTD/svg11.dtd">
<svg version="1.1" id="Layer_1" xmlns="http://www.w3.org/2000/svg" xmlns:xlink="http://www.w3.org/1999/xlink" x="0px" y="0px"
	 width="595.28px" height="841.89px" viewBox="0 0 595.28 841.89" enable-background="new 0 0 595.28 841.89" xml:space="preserve">
<rect x="77" y="466" fill="#F9D668" width="441" height="72"/>
<rect x="77" y="421" fill="#F9D668" width="441" height="18"/>
<rect x="77" y="322" fill="#F9D668" width="441" height="72"/>
<rect x="77" y="439" fill="#DFA3CA" width="441" height="27"/>
<rect x="77" y="394" fill="#F5ED61" width="441" height="27"/>
<circle fill="#F3D6E7" cx="134.5" cy="447.5" r="4.5"/>
<circle fill="#F3D6E7" cx="262.5" cy="456.5" r="4.5"/>
<circle fill="#F3D6E7" cx="345.5" cy="447.5" r="4.5"/>
<circle fill="#F3D6E7" cx="320.5" cy="457.5" r="4.5"/>
<circle fill="#F3D6E7" cx="171.5" cy="443.5" r="4.5"/>
<circle fill="#F3D6E7" cx="434.5" cy="452.5" r="4.5"/>
<circle fill="#F3D6E7" cx="488.5" cy="443.5" r="4.5"/>
<circle fill="#F3D6E7" cx="94.5" cy="452.5" r="4.5"/>
<rect x="86" y="304" fill="#EDE823" width="9" height="9"/>
<rect x="95" y="313" fill="#EDE823" width="9" height="9"/>
<rect x="77" y="313" fill="#EDE823" width="9" height="9"/>
<rect x="104" y="304" fill="#EDE823" width="9" height="9"/>
<rect x="113" y="313" fill="#EDE823" width="9" height="9"/>
<rect x="122" y="304" fill="#EDE823" width="9" height="9"/>
<rect x="131" y="313" fill="#EDE823" width="9" height="9"/>
<rect x="140" y="304" fill="#EDE823" width="9" height="9"/>
<rect x="158" y="304" fill="#EDE823" width="9" height="9"/>
<rect x="167" y="313" fill="#EDE823" width="9" height="9"/>
<rect x="149" y="313" fill="#EDE823" width="9" height="9"/>
<rect x="176" y="304" fill="#EDE823" width="9" height="9"/>
<rect x="185" y="313" fill="#EDE823" width="9" height="9"/>
<rect x="194" y="304" fill="#EDE823" width="9" height="9"/>
<rect x="203" y="313" fill="#EDE823" width="9" height="9"/>
<rect x="212" y="304" fill="#EDE823" width="9" height="9"/>
<rect x="230" y="304" fill="#EDE823" width="9" height="9"/>
<rect x="239" y="313" fill="#EDE823" width="9" height="9"/>
<rect x="221" y="313" fill="#EDE823" width="9" height="9"/>
<rect x="248" y="304" fill="#EDE823" width="9" height="9"/>
<rect x="257" y="313" fill="#EDE823" width="9" height="9"/>
<rect x="266" y="304" fill="#EDE823" width="9" height="9"/>
<rect x="275" y="313" fill="#EDE823" width="9" height="9"/>
<rect x="284" y="304" fill="#EDE823" width="9" height="9"/>
<rect x="301" y="304" fill="#EDE823" width="9" height="9"/>
<rect x="310" y="313" fill="#EDE823" width="9" height="9"/>
<rect x="292" y="313" fill="#EDE823" width="9" height="9"/>
<rect x="319" y="304" fill="#EDE823" width="9" height="9"/>
<rect x="328" y="313" fill="#EDE823" width="9" height="9"/>
<rect x="337" y="304" fill="#EDE823" width="9" height="9"/>
<rect x="346" y="313" fill="#EDE823" width="9" height="9"/>
<rect x="355" y="304" fill="#EDE823" width="9" height="9"/>
<rect x="372" y="304" fill="#EDE823" width="9" height="9"/>
<rect x="381" y="313" fill="#EDE823" width="9" height="9"/>
<rect x="363" y="313" fill="#EDE823" width="9" height="9"/>
<rect x="390" y="304" fill="#EDE823" width="9" height="9"/>
<rect x="399" y="313" fill="#EDE823" width="9" height="9"/>
<rect x="408" y="304" fill="#EDE823" width="9" height="9"/>
<rect x="417" y="313" fill="#EDE823" width="9" height="9"/>
<rect x="426" y="304" fill="#EDE823" width="9" height="9"/>
<rect x="446" y="304" fill="#EDE823" width="9" height="9"/>
<rect x="455" y="313" fill="#EDE823" width="9" height="9"/>
<rect x="437" y="313" fill="#EDE823" width="9" height="9"/>
<rect x="464" y="304" fill="#EDE823" width="9" height="9"/>
<rect x="473" y="313" fill="#EDE823" width="9" height="9"/>
<rect x="482" y="304" fill="#EDE823" width="9" height="9"/>
<rect x="491" y="313" fill="#EDE823" width="9" height="9"/>
<rect x="500" y="304" fill="#EDE823" width="9" height="9"/>
<rect x="86" y="340" fill="#F7911E" width="9" height="9"/>
<rect x="234" y="354" fill="#F7911E" width="9" height="9"/>
<rect x="185" y="385" fill="#F7911E" width="9" height="9"/>
<rect x="167" y="354" fill="#F7911E" width="9" height="9"/>
<rect x="270" y="378" fill="#F7911E" width="9" height="9"/>
<rect x="253" y="326" fill="#F7911E" width="9" height="9"/>
<rect x="319" y="373" fill="#F7911E" width="9" height="9"/>
<rect x="280" y="349" fill="#F7911E" width="9" height="9"/>
<rect x="363" y="340" fill="#F7911E" width="9" height="9"/>
<rect x="328" y="344" fill="#F7911E" width="9" height="9"/>
<rect x="377" y="373" fill="#F7911E" width="9" height="9"/>
<rect x="442" y="335" fill="#F7911E" width="9" height="9"/>
<rect x="422" y="373" fill="#F7911E" width="9" height="9"/>
<rect x="491" y="354" fill="#F7911E" width="9" height="9"/>
<rect x="108" y="373" fill="#F7911E" width="9" height="9"/>
<rect x="131" y="326" fill="#F7911E" width="9" height="9"/>
<rect x="99" y="482" fill="#F7911E" width="9" height="9"/>
<rect x="117" y="503" fill="#F7911E" width="9" height="9"/>
<rect x="135" y="478" fill="#F7911E" width="9" height="9"/>
<rect x="149" y="520" fill="#F7911E" width="9" height="9"/>
<rect x="248" y="512" fill="#F7911E" width="9" height="9"/>
<rect x="176" y="494" fill="#F7911E" width="9" height="9"/>
<rect x="225" y="478" fill="#F7911E" width="9" height="9"/>
<rect x="301" y="520" fill="#F7911E" width="9" height="9"/>
<rect x="279" y="494" fill="#F7911E" width="9" height="9"/>
<rect x="341" y="499" fill="#F7911E" width="9" height="9"/>
<rect x="319" y="471" fill="#F7911E" width="9" height="9"/>
<rect x="377" y="471" fill="#F7911E" width="9" height="9"/>
<rect x="360" y="525" fill="#F7911E" width="9" height="9"/>
<rect x="427" y="499" fill="#F7911E" width="9" height="9"/>
<rect x="482" y="487" fill="#F7911E" width="9" height="9"/>
<rect x="446" y="525" fill="#F7911E" width="9" height="9"/>
<rect x="427" y="469" fill="#F7911E" width="9" height="9"/>
<rect x="85" y="527" fill="#F7911E" width="9" height="9"/>
<rect x="125" y="427" fill="#F7911E" width="9" height="9"/>
<rect x="191" y="427" fill="#F7911E" width="9" height="9"/>
<rect x="321" y="427" fill="#F7911E" width="9" height="9"/>
<rect x="248" y="423" fill="#F7911E" width="9" height="9"/>
<rect x="460" y="426" fill="#F7911E" width="9" height="9"/>
<rect x="509" y="313" fill="#EDE823" width="9" height="9"/>
</svg>
